<svg width="57" height="51" viewBox="0 0 57 51" fill="none" xmlns="http://www.w3.org/2000/svg">
<g clip-path="url(#clip0)">
<path d="M55.23 38.0161L56.8139 40.8414C57.2513 41.6216 56.8915 42.568 56.0103 42.9553L48.7222 46.1969C46.9355 46.9823 44.7638 46.3146 43.914 44.7129L36.9252 31.543H21.375C19.6021 31.543 18.0991 30.3887 17.8482 28.8347C14.0755 5.4518 14.2923 6.90436 14.25 6.30859C14.25 2.72472 17.6252 -0.161169 21.7148 0.00699459C25.4188 0.159288 28.3998 2.85621 28.4974 6.13826C28.5941 9.38452 25.92 12.0943 22.418 12.5493L22.9379 15.7716H37.4062C38.3901 15.7716 39.1875 16.4776 39.1875 17.3487V20.503C39.1875 21.3741 38.3901 22.0802 37.4062 22.0802H23.9558L24.4648 25.2345H39.1875C39.8639 25.2345 40.5263 25.405 41.0972 25.726C41.6682 26.0471 42.1242 26.5054 42.4118 27.0474L48.8148 39.1133L52.8425 37.3046C53.7236 36.9173 54.7926 37.2359 55.23 38.0161V38.0161ZM34.6629 34.6973H31.9347C31.0677 40.0402 25.8642 44.1602 19.5938 44.1602C12.7185 44.1602 7.125 39.2076 7.125 33.1201C7.125 29.0289 9.65148 25.4503 13.3954 23.5433C12.9822 20.9839 12.6335 18.8256 12.3392 17.0047C5.1162 19.5629 0 25.8222 0 33.1201C0 42.6862 8.78969 50.4687 19.5938 50.4687C27.5949 50.4687 34.4901 46.1998 37.5298 40.0998L34.6629 34.6973Z" fill="#0474B3"/>
</g>
<defs>
<clipPath id="clip0">
<rect width="57" height="50.4688" fill="white"/>
</clipPath>
</defs>
</svg>
