<svg width="43" height="51" viewBox="0 0 43 51" fill="none" xmlns="http://www.w3.org/2000/svg">
<path d="M8.52575 1.39077C14.0829 -2.41519 20.1151 2.23187 21.4687 9.4653C22.4899 9.4653 23.4874 9.71763 24.3898 10.1802C25.6247 8.91858 26.7172 7.19434 26.2897 5.25981C25.2923 0.738922 31.0157 -2.91985 36.4541 3.32529C40.7526 8.24571 35.5042 13.5867 27.3109 14.7852C27.3109 15.6894 27.0497 16.5936 26.5034 17.3926C27.9284 18.465 29.8757 19.4323 32.0606 19.0538C37.1191 18.1706 41.2751 23.2172 34.2217 28.0535C28.6646 31.8595 22.6324 27.2124 21.2788 19.979C20.2576 19.979 19.2601 19.7056 18.3814 19.243C17.1465 20.5047 16.0303 22.25 16.4578 24.1845C17.4552 28.6843 11.7318 32.3641 6.29338 26.119C1.97113 21.1776 7.24332 15.8366 15.4366 14.6591C15.4366 13.7549 15.7453 12.8717 16.2678 12.0727C14.8429 11.0003 12.8955 10.012 10.6869 10.3905C5.62842 11.2737 1.47241 6.22708 8.52575 1.39077V1.39077ZM4.74972 33.6468H9.49944C10.7591 33.6468 11.9673 34.0899 12.858 34.8786C13.7487 35.6673 14.2492 36.7369 14.2492 37.8523V50.4687H9.49944V46.2633H4.74972V50.4687H0V37.8523C0 36.7369 0.500415 35.6673 1.39116 34.8786C2.28191 34.0899 3.49002 33.6468 4.74972 33.6468V33.6468ZM4.74972 37.8523V42.0578H9.49944V37.8523H4.74972ZM23.5824 33.6468H28.4983L21.54 50.4687H16.624L23.5824 33.6468ZM35.6229 33.6468H42.7475V37.8523H35.6229V46.2633H42.7475V50.4687H35.6229C34.3632 50.4687 33.1551 50.0257 32.2643 49.237C31.3736 48.4483 30.8732 47.3786 30.8732 46.2633V37.8523C30.8732 36.7369 31.3736 35.6673 32.2643 34.8786C33.1551 34.0899 34.3632 33.6468 35.6229 33.6468V33.6468Z" fill="#0474B3"/>
</svg>
