<svg width="151" height="169" viewBox="0 0 151 169" fill="none" xmlns="http://www.w3.org/2000/svg">
<path d="M132.083 168.75H19.5833C14.4075 168.75 9.98853 166.69 6.32642 162.57C2.66431 158.45 0.833252 153.479 0.833252 147.656V63.2812C0.833252 57.4585 2.66431 52.4872 6.32642 48.3673C9.98853 44.2474 14.4075 42.1875 19.5833 42.1875H38.3333V26.3672C38.3333 18.8965 40.8235 12.6343 45.804 7.58057C50.7844 2.52686 56.1067 0 61.7708 0H89.8958C95.5598 0 100.882 2.52686 105.863 7.58057C110.843 12.6343 113.333 18.8965 113.333 26.3672V42.1875H132.083C137.259 42.1875 141.678 44.2474 145.34 48.3673C149.002 52.4872 150.833 57.4585 150.833 63.2812V147.656C150.833 153.479 149.002 158.45 145.34 162.57C141.678 166.69 137.259 168.75 132.083 168.75ZM43.0208 73.8281C39.1145 73.8281 35.7942 75.3662 33.0598 78.4424C30.3254 81.5186 28.9583 85.2539 28.9583 89.6484C28.9583 94.043 30.3254 97.7783 33.0598 100.854C35.7942 103.931 39.1145 105.469 43.0208 105.469C46.927 105.469 50.2473 103.931 52.9817 100.854C55.7161 97.7783 57.0833 94.043 57.0833 89.6484C57.0833 85.2539 55.7161 81.5186 52.9817 78.4424C50.2473 75.3662 46.927 73.8281 43.0208 73.8281ZM94.5833 31.6406C94.5833 28.6743 93.6799 26.1749 91.8733 24.1425C90.0667 22.11 87.845 21.0938 85.2083 21.0938H66.4583C63.9192 21.0938 61.7219 22.11 59.8665 24.1425C58.011 26.1749 57.0833 28.6743 57.0833 31.6406V42.1875H94.5833V31.6406ZM122.708 105.469L85.2083 116.016L94.5833 147.656L132.083 137.109L122.708 105.469Z" fill="white"/>
</svg>
