<svg width="50" height="51" viewBox="0 0 50 51" fill="none" xmlns="http://www.w3.org/2000/svg">
<path d="M48.9057 25.6596C48.6742 25.1086 48.129 24.7533 47.5549 24.5612L25.8897 15.9404C25.3557 15.7738 24.7836 15.7738 24.2496 15.9404L2.60522 24.5658C2.02649 24.7463 1.46744 25.1179 1.23826 25.6688C1.00909 26.2198 0.89797 26.7534 1.12252 27.4143L6.50815 41.2053C6.57679 41.3749 6.69752 41.5183 6.85291 41.6148C7.00831 41.7113 7.19034 41.756 7.37277 41.7424C10.462 41.548 13.1959 39.9796 15.2874 37.9807C15.4518 37.8262 15.6689 37.7402 15.8945 37.7402C16.1201 37.7402 16.3372 37.8262 16.5016 37.9807C18.7378 40.122 21.7136 41.7424 25.0702 41.7424C28.4269 41.7424 31.3853 40.122 33.6215 37.976C33.7861 37.8215 34.0034 37.7355 34.2292 37.7355C34.455 37.7355 34.6722 37.8215 34.8368 37.976C36.9284 39.9761 39.6623 41.548 42.7515 41.7424C42.9334 41.7562 43.1149 41.712 43.2701 41.6161C43.4252 41.5202 43.546 41.3776 43.615 41.2088L49.0203 27.4166C49.2495 26.8633 49.1349 26.2117 48.9057 25.6596V25.6596Z" stroke="white" stroke-miterlimit="10"/>
<path d="M43.5895 50.2084C43.5895 50.0663 43.5512 49.9268 43.4787 49.8046C43.4062 49.6824 43.3022 49.582 43.1775 49.5139C40.0431 47.8298 37.1853 45.2521 35.9283 43.9581C35.7416 43.7623 35.4924 43.6377 35.2237 43.6058C34.9549 43.5739 34.6835 43.6367 34.4561 43.7833C28.6306 47.5358 21.5377 47.5381 15.7111 43.7891C15.4817 43.641 15.2076 43.5779 14.9365 43.6109C14.6654 43.6439 14.4144 43.7708 14.2272 43.9697C12.9807 45.2753 10.1542 47.824 7.00125 49.4965C6.87616 49.5599 6.76922 49.654 6.69047 49.77C6.61171 49.886 6.56372 50.0201 6.551 50.1597C6.54161 50.2787 6.55967 50.3983 6.60381 50.5091C6.64795 50.62 6.71698 50.7193 6.80556 50.7993C6.89415 50.8792 6.99993 50.9378 7.11474 50.9704C7.22954 51.003 7.35031 51.0088 7.46771 50.9873C9.881 50.5035 12.2133 49.4039 14.4356 48.2291C14.5781 48.154 14.7366 48.1142 14.8977 48.113C15.0588 48.1118 15.2179 48.1493 15.3615 48.2222C18.3712 49.7535 21.7001 50.552 25.0769 50.5524C28.4538 50.5528 31.7829 49.7551 34.7929 48.2245C34.9382 48.1508 35.099 48.1131 35.2619 48.1143C35.4248 48.1155 35.5851 48.1556 35.7293 48.2314C37.94 49.3889 40.2688 50.4989 42.674 50.9862C42.7873 51.0073 42.9038 51.0029 43.0152 50.9735C43.1266 50.9441 43.2301 50.8902 43.3181 50.8159C43.4062 50.7416 43.4766 50.6486 43.5244 50.5438C43.5721 50.4389 43.5959 50.3247 43.5942 50.2095L43.5895 50.2084Z" fill="white"/>
<path d="M32.478 6.55578V3.77789C32.4759 3.04181 32.1825 2.33648 31.662 1.81599C31.1415 1.29549 30.4362 1.00214 29.7001 1H20.4405C19.7044 1.00214 18.9991 1.29549 18.4786 1.81599C17.9581 2.33648 17.6647 3.04181 17.6626 3.77789V6.55578" stroke="white" stroke-linecap="round" stroke-linejoin="round"/>
<path d="M43.5896 22.4128V12.1114C43.5853 10.6393 42.9986 9.22862 41.9576 8.18764C40.9166 7.14665 39.506 6.55994 38.0338 6.55566H12.1068C10.6346 6.55994 9.22398 7.14665 8.183 8.18764C7.14201 9.22862 6.5553 10.6393 6.55103 12.1114V22.76" stroke="white" stroke-linecap="round" stroke-linejoin="round"/>
<path d="M25.0703 16.6943V41.3308" stroke="white" stroke-linecap="round" stroke-linejoin="round"/>
</svg>
