<svg width="61" height="50" viewBox="0 0 61 50" fill="none" xmlns="http://www.w3.org/2000/svg">
<path d="M60.7966 49.9995C58.7289 49.8115 56.8491 49.0596 55.1574 47.7438C54.2175 46.8039 52.9017 46.24 51.3979 46.24C50.0821 46.24 48.5783 46.8039 47.6385 47.7438C45.9467 49.2476 43.879 49.8115 41.8113 49.8115C39.5556 49.8115 37.3 49.0596 35.6082 47.7438C33.3525 45.6761 29.969 45.6761 27.9013 47.7438C26.2096 49.2476 23.9539 49.9995 21.5103 49.9995C19.2546 49.9995 17.1869 49.2476 15.4951 47.7438C14.3673 46.8039 13.0515 46.24 11.7357 46.24C10.2319 46.24 8.54014 46.8039 7.4123 47.7438C5.53257 49.2476 3.08893 49.9995 0.833252 49.8115V46.24C2.33703 46.24 4.02879 45.6761 5.15663 44.5482C7.03635 43.0445 9.29203 42.2926 11.5477 42.4805C13.8034 42.4805 16.059 43.2324 17.7508 44.7362C20.0065 46.8039 23.39 46.8039 25.6457 44.7362C29.2171 41.7286 34.4804 41.7286 37.8639 44.7362C40.1196 46.8039 43.5031 46.8039 45.5708 44.7362C47.2625 43.2324 49.5182 42.4805 51.7739 42.4805C53.8416 42.4805 55.9093 43.2324 57.4131 44.7362C58.5409 45.6761 58.9168 46.24 60.7966 46.24V49.9995Z" fill="white"/>
<path d="M4.59276 40.9776C5.72059 40.0377 6.84843 39.4738 8.16424 39.0978V34.9624C8.16424 33.8346 8.91613 32.8947 10.044 32.8947H57.0372L50.2702 38.7219H50.6461C52.1499 38.7219 53.6537 39.0978 54.7815 39.6617L59.4808 35.5263L59.8568 35.1504C61.1726 33.4586 60.7966 31.203 59.1049 29.8872C58.7289 29.5112 57.7891 29.3232 57.0372 29.3232H10.044C6.84843 29.3232 4.40479 31.7669 4.40479 34.9624L4.59276 40.9776Z" fill="white"/>
<path d="M24.8938 27.255H13.6154C11.5477 27.255 9.85596 25.5633 9.85596 23.4956C9.85596 22.7437 10.0439 21.9918 10.6078 21.2399L18.3147 10.3375C19.4426 8.64573 21.8862 8.26978 23.578 9.39762C24.5178 10.1495 25.0818 11.2773 25.0818 12.4052V27.255H24.8938Z" fill="white"/>
<path d="M42.5632 27.2561H26.9614V3.75946C26.9614 1.69176 28.6532 0 30.7209 0C32.0367 0 33.1645 0.751891 33.9164 1.87973L45.7587 21.4289C46.8865 23.3086 46.1346 25.5643 44.4429 26.5042C43.879 26.8801 43.1271 27.0681 42.5632 27.2561Z" fill="white"/>
</svg>
