<svg width="30" height="30" viewBox="0 0 45 50" fill="none" xmlns="http://www.w3.org/2000/svg">
<path d="M10.8333 0C6.28659 0 0.833252 2.47667 0.833252 9.15333V40C0.833252 40 0.833252 43.3333 4.16659 43.3333V46.6667C4.16659 46.6667 4.16659 50 7.49992 50C10.8333 50 10.8333 46.6667 10.8333 46.6667V43.3333H34.1666V46.6667C34.1666 46.6667 34.1666 50 37.4999 50C40.8333 50 40.8333 46.6667 40.8333 46.6667V43.3333C40.8333 43.3333 44.1666 43.3333 44.1666 40V9.15333C44.1666 2.33667 40.0466 0 35.4999 0H10.8333ZM11.6666 5H33.3333C33.5543 5 33.7662 5.0878 33.9225 5.24408C34.0788 5.40036 34.1666 5.61232 34.1666 5.83333C34.1666 6.05435 34.0788 6.26631 33.9225 6.42259C33.7662 6.57887 33.5543 6.66667 33.3333 6.66667H11.6666C11.4456 6.66667 11.2336 6.57887 11.0773 6.42259C10.921 6.26631 10.8333 6.05435 10.8333 5.83333C10.8333 5.61232 10.921 5.40036 11.0773 5.24408C11.2336 5.0878 11.4456 5 11.6666 5V5ZM7.49992 10H37.4999C40.8333 10 40.8333 13.2233 40.8333 13.2233V23.3333C40.8333 23.3333 40.8333 26.6667 37.4999 26.6667H7.49992C4.16659 26.6667 4.16659 23.3333 4.16659 23.3333V13.3333C4.16659 13.3333 4.16659 10 7.49992 10ZM7.49992 33.3333C8.38397 33.3333 9.23182 33.6845 9.85694 34.3096C10.4821 34.9348 10.8333 35.7826 10.8333 36.6667C10.8333 37.5507 10.4821 38.3986 9.85694 39.0237C9.23182 39.6488 8.38397 40 7.49992 40C6.61586 40 5.76802 39.6488 5.1429 39.0237C4.51777 38.3986 4.16659 37.5507 4.16659 36.6667C4.16659 35.7826 4.51777 34.9348 5.1429 34.3096C5.76802 33.6845 6.61586 33.3333 7.49992 33.3333V33.3333ZM37.4999 33.3333C38.384 33.3333 39.2318 33.6845 39.8569 34.3096C40.4821 34.9348 40.8333 35.7826 40.8333 36.6667C40.8333 37.5507 40.4821 38.3986 39.8569 39.0237C39.2318 39.6488 38.384 40 37.4999 40C36.6159 40 35.768 39.6488 35.1429 39.0237C34.5178 38.3986 34.1666 37.5507 34.1666 36.6667C34.1666 35.7826 34.5178 34.9348 35.1429 34.3096C35.768 33.6845 36.6159 33.3333 37.4999 33.3333V33.3333Z" fill="white"/>
</svg>
