<svg width="53" height="51" viewBox="0 0 53 51" fill="none" xmlns="http://www.w3.org/2000/svg">
<path d="M44.7866 32.4448H32.5723V28.8398H44.7866V32.4448Z" fill="#0474B3"/>
<path d="M52.9296 46.8637H40.7153V43.2588H52.9296V46.8637Z" fill="#0474B3"/>
<path d="M48.8581 39.6547H36.6438V36.0498H48.8581V39.6547Z" fill="#0474B3"/>
<path d="M26.4712 32.4442C26.4568 30.9233 25.9987 29.4315 25.1412 28.1136C24.2837 26.7957 23.0561 25.6965 21.5773 24.9225L36.6436 1.80246L33.1219 0L17.6972 23.659C15.8042 23.2846 13.8354 23.3364 11.9708 23.8096C10.1063 24.2829 8.40546 25.1626 7.024 26.3681C-0.597719 32.8768 -0.00736148 48.0931 0.0211385 48.7384C0.0421819 49.2038 0.265913 49.644 0.645427 49.9666C1.02494 50.2891 1.53076 50.4691 2.05685 50.4687H32.5742C33.0015 50.4687 33.4179 50.3497 33.7645 50.1285C34.1112 49.9073 34.3704 49.5952 34.5055 49.2363C34.6406 48.8774 34.6448 48.49 34.5174 48.1289C34.39 47.7678 34.1375 47.4513 33.7957 47.2243C26.5892 42.437 26.4712 32.5415 26.4712 32.4442ZM16.144 27.0314C17.7733 27.0473 19.333 27.6187 20.4986 28.6269C21.6641 29.6351 22.3458 31.0023 22.4018 32.4442C22.4018 32.5127 22.4059 32.8191 22.4364 33.2895L10.4257 28.5599C11.2168 27.9823 12.1298 27.5497 13.1115 27.2873C14.0932 27.0249 15.124 26.9379 16.144 27.0314V27.0314ZM23.3097 46.8638C21.6825 45.3968 20.6453 43.4968 20.3579 41.4565H16.2865C16.4323 43.3748 17.1091 45.2319 18.2571 46.8638H13.7317C12.8945 44.5246 12.3851 42.1032 12.2151 39.654H8.14364C8.27492 42.0959 8.72927 44.5157 9.49739 46.8638H4.07221C4.13532 43.5545 4.66257 36.2438 7.7426 31.4474L23.0776 37.4857C23.8144 40.873 25.3852 44.075 27.6784 46.8638H23.3097Z" fill="#0474B3"/>
</svg>
