<svg width="30" height="30" viewBox="0 0 50 45" fill="none" xmlns="http://www.w3.org/2000/svg">
<path d="M48.6111 5.57065C49.3785 5.57065 50 4.94744 50 4.17799V1.39266C50 0.623217 49.3785 0 48.6111 0H1.38889C0.621528 0 0 0.623217 0 1.39266V4.17799C0 4.94744 0.621528 5.57065 1.38889 5.57065H2.77604V38.9946H1.38889C0.621528 38.9946 0 39.6178 0 40.3872V43.1726C0 43.942 0.621528 44.5652 1.38889 44.5652H22.2222V37.6019C22.2222 36.8359 22.8472 36.2092 23.6111 36.2092H26.3889C27.1528 36.2092 27.7778 36.8359 27.7778 37.6019V44.5652H48.6111C49.3785 44.5652 50 43.942 50 43.1726V40.3872C50 39.6178 49.3785 38.9946 48.6111 38.9946H47.2222V5.57065H48.6111ZM22.2222 9.47011C22.2222 8.91304 22.7778 8.35598 23.3333 8.35598H26.6667C27.2222 8.35598 27.7778 8.91304 27.7778 9.47011V12.8125C27.7778 13.3696 27.2222 13.9266 26.6667 13.9266H23.3333C22.7778 13.9266 22.2222 13.3696 22.2222 12.8125V9.47011V9.47011ZM22.2222 17.8261C22.2222 17.269 22.7778 16.712 23.3333 16.712H26.6667C27.2222 16.712 27.7778 17.269 27.7778 17.8261V21.1685C27.7778 21.7255 27.2222 22.2826 26.6667 22.2826H23.3333C22.7778 22.2826 22.2222 21.7255 22.2222 21.1685V17.8261V17.8261ZM11.1111 9.47011C11.1111 8.91304 11.6667 8.35598 12.2222 8.35598H15.5556C16.1111 8.35598 16.6667 8.91304 16.6667 9.47011V12.8125C16.6667 13.3696 16.1111 13.9266 15.5556 13.9266H12.2222C11.6667 13.9266 11.1111 13.3696 11.1111 12.8125V9.47011ZM15.5556 22.2826H12.2222C11.6667 22.2826 11.1111 21.7255 11.1111 21.1685V17.8261C11.1111 17.269 11.6667 16.712 12.2222 16.712H15.5556C16.1111 16.712 16.6667 17.269 16.6667 17.8261V21.1685C16.6667 21.7255 16.1111 22.2826 15.5556 22.2826ZM16.6667 33.4239C16.6667 28.809 20.3976 25.0679 25 25.0679C29.6024 25.0679 33.3333 28.809 33.3333 33.4239H16.6667ZM38.8889 21.1685C38.8889 21.7255 38.3333 22.2826 37.7778 22.2826H34.4444C33.8889 22.2826 33.3333 21.7255 33.3333 21.1685V17.8261C33.3333 17.269 33.8889 16.712 34.4444 16.712H37.7778C38.3333 16.712 38.8889 17.269 38.8889 17.8261V21.1685ZM38.8889 12.8125C38.8889 13.3696 38.3333 13.9266 37.7778 13.9266H34.4444C33.8889 13.9266 33.3333 13.3696 33.3333 12.8125V9.47011C33.3333 8.91304 33.8889 8.35598 34.4444 8.35598H37.7778C38.3333 8.35598 38.8889 8.91304 38.8889 9.47011V12.8125Z" fill="white"/>
</svg>
