<svg width="50" height="50" viewBox="0 0 50 50" fill="none" xmlns="http://www.w3.org/2000/svg">
<path d="M38.3293 34.9961H17.5357L13.2653 38.6415L8.9949 34.9961H0V37.4958C0 40.682 2.20081 43.2775 4.9224 43.3286C5.1755 44.9034 5.78794 46.3262 6.70972 47.4396C8.07312 49.0863 10.0552 49.9945 12.2904 49.9945H26.039C28.2741 49.9945 30.2562 49.0863 31.6196 47.4375C32.5414 46.3241 33.1538 44.9013 33.4069 43.3265C34.8526 43.3004 36.1514 42.5557 37.0524 41.3861C37.8938 40.2648 38.3426 38.8976 38.3293 37.4958V34.9961Z" fill="white"/>
<path d="M9.26987 31.6635L13.2622 34.5996L17.2899 31.6635H38.3293V30.8302C38.3282 29.8701 37.996 28.9398 37.3889 28.1961C36.7818 27.4524 35.9368 26.9407 34.9964 26.7473C34.9109 23.6549 33.6423 21.0667 31.2978 19.2481C29.1293 17.5566 26.2316 16.665 22.9143 16.665H15.4151C8.30955 16.665 3.49651 20.7032 3.33299 26.7473C2.39258 26.9407 1.54759 27.4524 0.940454 28.1961C0.33332 28.9398 0.00117297 29.8701 0 30.8302V31.6635H9.26987Z" fill="white"/>
<path d="M46.5659 8.33247H38.7969L39.726 4.61827L44.3703 3.02052L43.3287 0L36.871 2.08312L35.3618 8.33247H19.9978V11.6655H21.9507L22.1445 13.3319H22.9142C26.9762 13.3319 30.5863 14.4672 33.3422 16.6149C34.8751 17.7961 36.1178 19.3119 36.9752 21.0468C37.5036 22.123 37.8797 23.2676 38.0928 24.4475C39.6448 25.403 40.7957 26.8912 41.3304 28.6336C41.865 30.3761 41.7467 32.2536 40.9977 33.9152C41.4366 35.0581 41.6618 36.2719 41.6622 37.4961C41.6622 39.8229 40.8706 42.0404 39.4333 43.7402C38.5438 44.7999 37.4044 45.6214 36.118 46.1306C35.6796 47.3799 35.0265 48.5431 34.188 49.5678C34.0651 49.7157 33.9391 49.8604 33.8099 50H41.6622C43.3287 50 44.0578 49.1668 44.2661 47.6044L48.0574 11.6707H49.9947V8.33247H46.5659Z" fill="white"/>
</svg>
