<svg width="90" height="90" viewBox="0 0 90 90" fill="none" xmlns="http://www.w3.org/2000/svg">
<path opacity="0.3" d="M24.3375 58.8L30 52.35L35.6625 58.8C36.9375 60.3 40.4625 63.75 45 63.75C49.5375 63.75 53.0625 60.3 54.3375 58.8L60 52.35L65.6625 58.8C66.4125 59.6625 67.9125 61.2 69.9375 62.325L74.1375 47.4375L65.175 44.5125L45 37.9125L24.825 44.55L15.825 47.5125L20.0625 62.3625C22.125 61.2 23.5875 59.6625 24.3375 58.8ZM41.25 11.25H48.75V15H41.25V11.25Z" fill="#0474B3"/>
<path d="M14.8123 71.25H14.9998C20.9998 71.25 26.3248 67.95 29.9998 63.75C33.6748 67.95 38.9998 71.25 44.9998 71.25C50.9998 71.25 56.3248 67.95 59.9998 63.75C63.6748 67.95 68.9998 71.25 74.9998 71.25H75.1873L82.2748 46.2C82.5749 45.225 82.4998 44.175 82.0498 43.275C81.5998 42.375 80.7748 41.7 79.7999 41.4L74.9998 39.825V22.5C74.9998 18.375 71.6248 15 67.4998 15H56.2498V3.75H33.7498V15H22.4998C18.3748 15 14.9998 18.375 14.9998 22.5V39.825L10.1623 41.4C9.68142 41.5477 9.23486 41.79 8.8489 42.1128C8.46293 42.4355 8.14534 42.832 7.91478 43.2792C7.68422 43.7263 7.54533 44.2151 7.50627 44.7166C7.46721 45.2182 7.52878 45.7225 7.68734 46.2L14.8123 71.25ZM41.2498 11.25H48.7498V15H41.2498V11.25ZM22.4998 22.5H67.4998V37.3875L44.9998 30L22.4998 37.3875V22.5ZM24.8248 44.5125L44.9998 37.9125L65.1748 44.55L74.1374 47.475L69.9373 62.3625C67.9123 61.2375 66.4123 59.7 65.6623 58.8375L59.9998 52.35L54.3373 58.8C53.0623 60.3 49.5373 63.75 44.9998 63.75C40.4623 63.75 36.9373 60.3 35.6623 58.8L29.9998 52.35L24.3373 58.8C23.5873 59.6625 22.0873 61.1625 20.0623 62.2875L15.8248 47.4375L24.8248 44.5125ZM29.9998 82.5375C34.7248 84.9375 39.8623 86.175 44.9998 86.175C50.1373 86.175 55.2748 84.975 59.9998 82.5375C64.7248 84.975 69.8248 86.25 74.9998 86.25H82.4998V78.75H74.9998C69.7873 78.75 64.5748 76.9875 59.9998 73.8C55.4248 76.9875 50.2123 78.6 44.9998 78.6C39.7873 78.6 34.5748 76.9875 29.9998 73.8C25.4248 76.9875 20.2123 78.75 14.9998 78.75H7.49984V86.25H14.9998C20.1748 86.25 25.2748 84.9375 29.9998 82.5375Z" fill="#0474B3"/>
</svg>
