<svg width="76" height="84" viewBox="0 0 76 84" fill="none" xmlns="http://www.w3.org/2000/svg">
<path opacity="0.3" d="M17.3375 55.8L23 49.35L28.6625 55.8C29.9375 57.3 33.4625 60.75 38 60.75C42.5375 60.75 46.0625 57.3 47.3375 55.8L53 49.35L58.6625 55.8C59.4125 56.6625 60.9125 58.2 62.9375 59.325L67.1375 44.4375L58.175 41.5125L38 34.9125L17.825 41.55L8.82495 44.5125L13.0625 59.3625C15.125 58.2 16.5875 56.6625 17.3375 55.8ZM34.25 8.25H41.75V12H34.25V8.25Z" fill="#0474B3"/>
<path d="M7.81234 68.25H7.99984C13.9998 68.25 19.3248 64.95 22.9998 60.75C26.6748 64.95 31.9998 68.25 37.9998 68.25C43.9998 68.25 49.3248 64.95 52.9998 60.75C56.6748 64.95 61.9998 68.25 67.9998 68.25H68.1873L75.2748 43.2C75.5748 42.225 75.4998 41.175 75.0498 40.275C74.5998 39.375 73.7749 38.7 72.7999 38.4L67.9998 36.825V19.5C67.9998 15.375 64.6248 12 60.4998 12H49.2498V0.75H26.7498V12H15.4998C11.3748 12 7.99984 15.375 7.99984 19.5V36.825L3.16234 38.4C2.68142 38.5477 2.23486 38.79 1.8489 39.1128C1.46293 39.4355 1.14534 39.832 0.91478 40.2792C0.684216 40.7263 0.545327 41.2151 0.50627 41.7166C0.467213 42.2182 0.528775 42.7225 0.687342 43.2L7.81234 68.25ZM34.2498 8.25H41.7498V12H34.2498V8.25ZM15.4998 19.5H60.4998V34.3875L37.9998 27L15.4998 34.3875V19.5ZM17.8248 41.5125L37.9998 34.9125L58.1748 41.55L67.1374 44.475L62.9373 59.3625C60.9123 58.2375 59.4123 56.7 58.6623 55.8375L52.9998 49.35L47.3373 55.8C46.0623 57.3 42.5373 60.75 37.9998 60.75C33.4623 60.75 29.9373 57.3 28.6623 55.8L22.9998 49.35L17.3373 55.8C16.5873 56.6625 15.0873 58.1625 13.0623 59.2875L8.82484 44.4375L17.8248 41.5125Z" fill="#0474B3"/>
<path d="M38.5 83.375C33.3625 83.375 28.225 82.1375 23.5 79.7375C18.775 82.1375 13.675 83.45 8.5 83.45H1V75.95H8.5C13.7125 75.95 18.925 74.1875 23.5 71C28.075 74.1875 33.2875 75.8 38.5 75.8C43.7125 75.8 48.925 74.1875 53.5 71C58.075 74.1875 63.2875 75.95 68.5 75.95H76V83.45H68.5C63.325 83.45 58.225 82.175 53.5 79.7375C48.775 82.175 43.6375 83.375 38.5 83.375Z" fill="#0474B3"/>
</svg>
