<svg width="150" height="120" viewBox="0 0 150 120" fill="none" xmlns="http://www.w3.org/2000/svg">
<path d="M15 0C11.0218 0 7.20644 1.5777 4.3934 4.38603C1.58035 7.19435 0 11.0033 0 14.9748V44.9245C3.97825 44.9245 7.79356 46.5022 10.6066 49.3105C13.4196 52.1189 15 55.9278 15 59.8993C15 63.8709 13.4196 67.6798 10.6066 70.4881C7.79356 73.2965 3.97825 74.8742 0 74.8742V104.824C0 108.795 1.58035 112.604 4.3934 115.413C7.20644 118.221 11.0218 119.799 15 119.799H135C138.978 119.799 142.794 118.221 145.607 115.413C148.42 112.604 150 108.795 150 104.824V74.8742C146.022 74.8742 142.206 73.2965 139.393 70.4881C136.58 67.6798 135 63.8709 135 59.8993C135 55.9278 136.58 52.1189 139.393 49.3105C142.206 46.5022 146.022 44.9245 150 44.9245V14.9748C150 11.0033 148.42 7.19435 145.607 4.38603C142.794 1.5777 138.978 0 135 0H15ZM101.25 22.4622L112.5 33.6934L48.75 97.3364L37.5 86.1053L101.25 22.4622ZM51.075 22.7617C58.425 22.7617 64.35 28.6768 64.35 36.0145C64.35 39.5293 62.9514 42.9002 60.4618 45.3856C57.9723 47.8709 54.5958 49.2672 51.075 49.2672C43.725 49.2672 37.8 43.3521 37.8 36.0145C37.8 32.4996 39.1986 29.1287 41.6882 26.6434C44.1777 24.158 47.5543 22.7617 51.075 22.7617V22.7617ZM98.925 70.5315C106.275 70.5315 112.2 76.4465 112.2 83.7842C112.2 87.299 110.801 90.6699 108.312 93.1553C105.822 95.6407 102.446 97.0369 98.925 97.0369C91.575 97.0369 85.65 91.1219 85.65 83.7842C85.65 80.2693 87.0486 76.8985 89.5382 74.4131C92.0277 71.9277 95.4042 70.5315 98.925 70.5315V70.5315Z" fill="white"/>
</svg>
