<svg width="53" height="51" viewBox="0 0 53 51" fill="none" xmlns="http://www.w3.org/2000/svg">
<path d="M14.6953 32.0282H37.8516L40.3179 9.34157C40.6376 6.36925 40.1695 4.06925 38.9135 2.44155C37.6575 0.813849 35.6478 0 32.8846 0H19.7308C16.9675 0 14.9465 0.813849 13.6677 2.44155C12.3888 4.06925 11.9093 6.36925 12.229 9.34157L14.6953 32.0282ZM35.0769 40.7632H17.5385V48.4063C17.5385 48.9725 17.3272 49.4578 16.9047 49.8622C16.4823 50.2666 15.9627 50.4687 15.3462 50.4687H10.9615C10.345 50.4687 9.82542 50.2868 9.40294 49.9228C8.98047 49.5589 8.76923 49.0938 8.76923 48.5276L8.73498 40.3083C7.9357 40.005 7.23347 39.6157 6.62831 39.1406C6.02314 38.6654 5.53215 38.0841 5.15535 37.3966C4.77855 36.7091 4.47025 36.0267 4.23047 35.3494C3.99069 34.672 3.8137 33.8329 3.69952 32.832C3.58534 31.8311 3.51112 30.9263 3.47686 30.1175C3.44261 29.3087 3.42548 28.2977 3.42548 27.0845C2.42067 26.9025 1.59856 26.4728 0.959135 25.7955C0.319712 25.1181 0 24.284 0 23.2933C0 22.1812 0.439603 21.2561 1.31881 20.5181C2.19802 19.7801 3.5625 19.4111 5.41226 19.4111C6.21154 19.4111 6.89093 19.5122 7.45042 19.7144C8.00992 19.9166 8.47236 20.235 8.83774 20.6697C9.20313 21.1045 9.47716 21.4886 9.65986 21.8223C9.84255 22.1559 10.0481 22.626 10.2764 23.2326L11.6124 33.2718C11.7951 34.1008 11.9778 34.5759 12.1605 34.6973C12.3888 34.859 12.8912 34.9399 13.6677 34.9399H38.8792C39.7242 34.9399 40.2323 34.859 40.4035 34.6973C40.5748 34.5355 40.7518 34.0603 40.9345 33.2718L42.2704 23.2326C42.4988 22.626 42.7043 22.1559 42.887 21.8223C43.0697 21.4886 43.3438 21.1045 43.7091 20.6697C44.0745 20.235 44.537 19.9166 45.0965 19.7144C45.6559 19.5122 46.3353 19.4111 47.1346 19.4111C48.9844 19.4111 50.3603 19.7801 51.2623 20.5181C52.1644 21.2561 52.6154 22.1812 52.6154 23.2933C52.6154 24.2638 52.29 25.0928 51.6391 25.7803C50.9883 26.4678 50.149 26.9025 49.1214 27.0845C49.1214 28.3179 49.1043 29.3339 49.07 30.1326C49.0358 30.9313 48.9615 31.8412 48.8474 32.8623C48.7332 33.8834 48.5619 34.7377 48.3335 35.4252C48.1052 36.1127 47.8026 36.8052 47.4258 37.5028C47.049 38.2004 46.558 38.7867 45.9528 39.2619C45.3477 39.7371 44.6454 40.1263 43.8462 40.4296V48.5276C43.8462 49.0938 43.6349 49.5589 43.2124 49.9228C42.79 50.2868 42.2704 50.4687 41.6538 50.4687H37.2692C36.6526 50.4687 36.1331 50.2868 35.7106 49.9228C35.2882 49.5589 35.0769 49.0938 35.0769 48.5276V40.7632Z" fill="#0474B3"/>
</svg>
