<svg width="47" height="38" viewBox="0 0 47 38" fill="none" xmlns="http://www.w3.org/2000/svg">
<path fill-rule="evenodd" clip-rule="evenodd" d="M42.7957 13.9102C32.1382 2.46611 14.8618 2.46611 4.20426 13.9102C3.73637 14.3955 3.10971 14.664 2.45925 14.6579C1.80879 14.6518 1.18657 14.3717 0.726613 13.8778C0.26665 13.3839 0.00574611 12.7157 9.37811e-05 12.0173C-0.00555854 11.3188 0.244493 10.6459 0.696393 10.1435C13.289 -3.38116 33.711 -3.38116 46.3036 10.1435C46.7555 10.6459 47.0056 11.3188 46.9999 12.0173C46.9943 12.7157 46.7334 13.3839 46.2734 13.8778C45.8134 14.3717 45.1912 14.6518 44.5407 14.6579C43.8903 14.664 43.2636 14.3955 42.7957 13.9102ZM35.78 21.4437C34.1674 19.712 32.253 18.3383 30.146 17.401C28.0389 16.4638 25.7806 15.9814 23.5 15.9814C21.2194 15.9814 18.9611 16.4638 16.854 17.401C14.747 18.3383 12.8326 19.712 11.22 21.4437C10.7521 21.929 10.1254 22.1975 9.47498 22.1914C8.82452 22.1854 8.20231 21.9052 7.74234 21.4113C7.28238 20.9174 7.02148 20.2492 7.01582 19.5508C7.01017 18.8523 7.26022 18.1794 7.71212 17.677C9.78541 15.4507 12.2468 13.6846 14.9557 12.4798C17.6645 11.2749 20.5679 10.6547 23.5 10.6547C26.4321 10.6547 29.3355 11.2749 32.0443 12.4798C34.7532 13.6846 37.2146 15.4507 39.2879 17.677C39.7398 18.1794 39.9898 18.8523 39.9842 19.5508C39.9785 20.2492 39.7176 20.9174 39.2577 21.4113C38.7977 21.9052 38.1755 22.1854 37.525 22.1914C36.8746 22.1975 36.2479 21.929 35.78 21.4437V21.4437ZM28.7593 28.9826C27.3637 27.4844 25.471 26.6427 23.4975 26.6427C21.5241 26.6427 19.6314 27.4844 18.2357 28.9826C17.7702 29.4824 17.1389 29.7633 16.4805 29.7633C15.8222 29.7633 15.1909 29.4824 14.7254 28.9826C14.2599 28.4827 13.9984 27.8048 13.9984 27.0979C13.9984 26.391 14.2599 25.713 14.7254 25.2132C15.8772 23.976 17.2448 22.9945 18.7499 22.325C20.2551 21.6554 21.8683 21.3107 23.4975 21.3107C25.1267 21.3107 26.74 21.6554 28.2451 22.325C29.7502 22.9945 31.1178 23.976 32.2697 25.2132C32.7352 25.713 32.9967 26.391 32.9967 27.0979C32.9967 27.8048 32.7352 28.4827 32.2697 28.9826C31.8042 29.4824 31.1728 29.7633 30.5145 29.7633C29.8562 29.7633 29.2248 29.4824 28.7593 28.9826V28.9826ZM21.0192 34.6301C21.0192 33.9235 21.2806 33.246 21.7458 32.7464C22.211 32.2468 22.842 31.9662 23.5 31.9662H23.5248C24.1828 31.9662 24.8138 32.2468 25.279 32.7464C25.7442 33.246 26.0056 33.9235 26.0056 34.6301C26.0056 35.3366 25.7442 36.0141 25.279 36.5137C24.8138 37.0133 24.1828 37.294 23.5248 37.294H23.5C22.842 37.294 22.211 37.0133 21.7458 36.5137C21.2806 36.0141 21.0192 35.3366 21.0192 34.6301Z" fill="#0474B3"/>
</svg>
